<svg id="Layer_3" enable-background="new 0 0 60 60" height="512" viewBox="0 0 60 60" width="512" xmlns="http://www.w3.org/2000/svg"><path d="m6 27.57h19.9c.55 0 1-.45 1-1v-19.9c0-.55-.45-1-1-1h-19.9c-.55 0-1 .45-1 1v19.9c0 .55.45 1 1 1zm1-19.9h17.9v17.9h-17.9z"/><path d="m44.05 5.67c-6.04 0-10.95 4.91-10.95 10.95s4.91 10.95 10.95 10.95 10.95-4.91 10.95-10.95-4.91-10.95-10.95-10.95zm0 19.9c-4.94 0-8.95-4.02-8.95-8.95s4.02-8.95 8.95-8.95 8.95 4.01 8.95 8.95-4.02 8.95-8.95 8.95z"/><path d="m34.1 54.33h19.9c.36 0 .69-.19.87-.5s.18-.69 0-1l-9.95-17.23c-.36-.62-1.38-.62-1.73 0l-9.95 17.24c-.18.31-.18.69 0 1 .17.3.5.49.86.49zm9.95-16.23 8.22 14.24h-16.44z"/><path d="m20.93 35.1h-9.95c-.36 0-.69.19-.87.5l-4.98 8.62c-.18.31-.18.69 0 1l4.98 8.62c.18.31.51.5.87.5h9.95c.36 0 .69-.19.87-.5l4.98-8.62c.18-.31.18-.69 0-1l-4.98-8.62c-.19-.31-.52-.5-.87-.5zm-.58 17.23h-8.8l-4.4-7.62 4.4-7.62h8.8l4.4 7.62z"/></svg>