<?xml version="1.0" encoding="UTF-8" standalone="no"?>
<!-- Created with Inkscape (http://www.inkscape.org/) -->

<svg
   version="1.1"
   id="svg2400"
   xml:space="preserve"
   width="682.66669"
   height="682.66669"
   viewBox="0 0 682.66669 682.66669"
   xmlns="http://www.w3.org/2000/svg"
   xmlns:svg="http://www.w3.org/2000/svg"><defs
     id="defs2404"><clipPath
       clipPathUnits="userSpaceOnUse"
       id="clipPath2418"><path
         d="M 0,512 H 512 V 0 H 0 Z"
         id="path2416" /></clipPath></defs><g
     id="g2406"
     transform="matrix(1.3333333,0,0,-1.3333333,0,682.66667)"><g
       id="g2408"
       transform="translate(361.4189,232.0742)"><path
         d="M 0,0 H 88.26"
         style="fill:none;stroke:#000000;stroke-width:15;stroke-linecap:round;stroke-linejoin:round;stroke-miterlimit:10;stroke-dasharray:none;stroke-opacity:1"
         id="path2410" /></g><g
       id="g2412"><g
         id="g2414"
         clip-path="url(#clipPath2418)"><g
           id="g2420"
           transform="translate(346.2124,158.1084)"><path
             d="m 0,0 h 97.621 c 20.425,0 36.983,16.558 36.983,36.983 0,20.425 -16.558,36.983 -36.982,36.983 H 0"
             style="fill:none;stroke:#000000;stroke-width:15;stroke-linecap:round;stroke-linejoin:round;stroke-miterlimit:10;stroke-dasharray:none;stroke-opacity:1"
             id="path2422" /></g><g
           id="g2424"
           transform="translate(356.5327,84.1426)"><path
             d="m 0,0 h 71.061 c 20.425,0 36.982,16.559 36.982,36.983 0,20.425 -16.557,36.983 -36.982,36.983 H 0"
             style="fill:none;stroke:#000000;stroke-width:15;stroke-linecap:round;stroke-linejoin:round;stroke-miterlimit:10;stroke-dasharray:none;stroke-opacity:1"
             id="path2426" /></g><g
           id="g2428"
           transform="translate(360.8613,10.1768)"><path
             d="m 0,0 h 46.27 c 20.425,0 36.983,16.559 36.983,36.983 0,20.425 -16.558,36.983 -36.983,36.983 H 0"
             style="fill:none;stroke:#000000;stroke-width:15;stroke-linecap:round;stroke-linejoin:round;stroke-miterlimit:10;stroke-dasharray:none;stroke-opacity:1"
             id="path2430" /></g><g
           id="g2432"
           transform="translate(25.3384,125.1611)"><path
             d="m 0,0 v 165.213 c 0,13.27 10.758,24.028 24.028,24.028 h 58.197 c 13.27,0 24.028,-10.758 24.028,-24.028 V -93.633 c 0,-13.27 -10.758,-24.028 -24.028,-24.028 H 24.028 C 10.758,-117.661 0,-106.903 0,-93.633 v 58.276"
             style="fill:none;stroke:#000000;stroke-width:15;stroke-linecap:round;stroke-linejoin:round;stroke-miterlimit:10;stroke-dasharray:none;stroke-opacity:1"
             id="path2434" /></g><g
           id="g2436"
           transform="translate(370.9673,306.04)"><path
             d="m 0,0 h -74.11 c -15.752,0 -25.617,17.029 -17.781,30.694 13.7,23.888 23.637,49.744 29.46,76.66 l 8.841,40.866 c 4.753,22.493 -9.628,44.58 -32.121,49.332 v 0 c -22.493,4.753 -44.58,-9.628 -49.332,-32.121 l -4.284,-20.27 c -5.836,-27.623 -16.001,-54.151 -30.117,-78.601 l -27.63,-47.857 c -9.663,-16.736 -24.745,-29.221 -42.302,-35.765"
             style="fill:none;stroke:#000000;stroke-width:15;stroke-linecap:round;stroke-linejoin:round;stroke-miterlimit:10;stroke-dasharray:none;stroke-opacity:1"
             id="path2438" /></g><g
           id="g2440"
           transform="translate(131.5913,35.9199)"><path
             d="m 0,0 h 19.359 c 19.361,0 38.469,-4.401 55.878,-12.871 17.41,-8.471 36.517,-12.872 55.878,-12.872 h 14.453 31.967 3.39 48.345 46.27 9.719 v 1.3 c 15.709,4.268 27.264,18.623 27.264,35.683 0,17.061 -11.555,31.414 -27.264,35.684 v 1.299 h 10.743 c 20.425,0 36.983,16.558 36.983,36.983 0,20.425 -16.558,36.982 -36.983,36.982 h 16.24 c 20.425,0 36.983,16.558 36.983,36.984 0,20.425 -16.558,36.982 -36.982,36.982 h 5.844 c 20.771,0 37.542,17.123 36.969,38.023 -0.553,20.143 -17.586,35.943 -37.738,35.943 h -32.059 -10.526"
             style="fill:none;stroke:#000000;stroke-width:15;stroke-linecap:round;stroke-linejoin:round;stroke-miterlimit:10;stroke-dasharray:none;stroke-opacity:1"
             id="path2442" /></g></g></g></g></svg>
